<svg xmlns="http://www.w3.org/2000/svg" width="24" height="24" viewBox="0 0 24 24">
    <g fill="none" fill-rule="nonzero">
        <path fill="#FEE084" d="M23.286 20.004H.714a.702.702 0 0 1-.714-.69v-3.62c0-.382.32-.69.714-.69h22.572c.394 0 .714.308.714.69v3.62c0 .381-.32.69-.714.69z"/>
        <path fill="#FEE084" d="M23.286 16H.714A.721.721 0 0 1 0 15.273V4.727c0-.272.15-.522.387-.646a.703.703 0 0 1 .742.055l6.123 4.452 4.24-4.371a.708.708 0 0 1 1.016 0l4.24 4.371 6.123-4.452a.703.703 0 0 1 .742-.055.729.729 0 0 1 .387.646v10.546c0 .401-.32.727-.714.727z"/>
        <path fill="#ED7B35" d="M24 17H0v-3.278h24z"/>
        <path fill="#FCB309" d="M23.286 15.004H12V20h11.286a.702.702 0 0 0 .714-.689v-3.618c0-.38-.32-.69-.714-.69z"/>
        <path fill="#FCB309" d="M23.613 4.08a.703.703 0 0 0-.742.056l-6.122 4.452-4.241-4.371A.707.707 0 0 0 12 4V16h11.286a.721.721 0 0 0 .714-.727V4.727a.729.729 0 0 0-.387-.646z"/>
        <path fill="#EA5B31" d="M12 13.722h12V17H12z"/>
    </g>
</svg>
